<mxfile host="app.diagrams.net" modified="2024-01-10T19:18:21.735Z" agent="Mozilla/5.0 (Windows NT 10.0; Win64; x64) AppleWebKit/537.36 (KHTML, like Gecko) Chrome/120.0.0.0 Safari/537.36 Edg/120.0.0.0" etag="1yEDhNbPMAjR0A6KyHH5" version="22.1.18" type="github">
  <diagram id="C5RBs43oDa-KdzZeNtuy" name="Page-1">
    <mxGraphModel dx="1121" dy="541" grid="1" gridSize="10" guides="1" tooltips="1" connect="1" arrows="1" fold="1" page="1" pageScale="1" pageWidth="827" pageHeight="1169" math="0" shadow="0">
      <root>
        <mxCell id="WIyWlLk6GJQsqaUBKTNV-0" />
        <mxCell id="WIyWlLk6GJQsqaUBKTNV-1" parent="WIyWlLk6GJQsqaUBKTNV-0" />
        <mxCell id="nvrNx87k68oCqkHKVC3R-5" value="" style="edgeStyle=orthogonalEdgeStyle;rounded=0;orthogonalLoop=1;jettySize=auto;html=1;" edge="1" parent="WIyWlLk6GJQsqaUBKTNV-1" source="WIyWlLk6GJQsqaUBKTNV-3" target="nvrNx87k68oCqkHKVC3R-4">
          <mxGeometry relative="1" as="geometry" />
        </mxCell>
        <mxCell id="WIyWlLk6GJQsqaUBKTNV-3" value="Başla" style="rounded=1;whiteSpace=wrap;html=1;fontSize=12;glass=0;strokeWidth=1;shadow=0;" parent="WIyWlLk6GJQsqaUBKTNV-1" vertex="1">
          <mxGeometry x="359" y="160" width="120" height="60" as="geometry" />
        </mxCell>
        <mxCell id="nvrNx87k68oCqkHKVC3R-7" value="" style="edgeStyle=orthogonalEdgeStyle;rounded=0;orthogonalLoop=1;jettySize=auto;html=1;" edge="1" parent="WIyWlLk6GJQsqaUBKTNV-1" source="nvrNx87k68oCqkHKVC3R-4" target="nvrNx87k68oCqkHKVC3R-6">
          <mxGeometry relative="1" as="geometry" />
        </mxCell>
        <mxCell id="nvrNx87k68oCqkHKVC3R-4" value="1. yazılı notunu giriniz(Not1)" style="whiteSpace=wrap;html=1;rounded=1;glass=0;strokeWidth=1;shadow=0;" vertex="1" parent="WIyWlLk6GJQsqaUBKTNV-1">
          <mxGeometry x="359" y="280" width="120" height="60" as="geometry" />
        </mxCell>
        <mxCell id="nvrNx87k68oCqkHKVC3R-9" value="" style="edgeStyle=orthogonalEdgeStyle;rounded=0;orthogonalLoop=1;jettySize=auto;html=1;" edge="1" parent="WIyWlLk6GJQsqaUBKTNV-1" source="nvrNx87k68oCqkHKVC3R-6" target="nvrNx87k68oCqkHKVC3R-8">
          <mxGeometry relative="1" as="geometry" />
        </mxCell>
        <mxCell id="nvrNx87k68oCqkHKVC3R-6" value="2. yazılı notunu giriniz. (Not2)" style="whiteSpace=wrap;html=1;rounded=1;glass=0;strokeWidth=1;shadow=0;" vertex="1" parent="WIyWlLk6GJQsqaUBKTNV-1">
          <mxGeometry x="359" y="430" width="120" height="60" as="geometry" />
        </mxCell>
        <mxCell id="nvrNx87k68oCqkHKVC3R-11" value="" style="edgeStyle=orthogonalEdgeStyle;rounded=0;orthogonalLoop=1;jettySize=auto;html=1;" edge="1" parent="WIyWlLk6GJQsqaUBKTNV-1" source="nvrNx87k68oCqkHKVC3R-8" target="nvrNx87k68oCqkHKVC3R-10">
          <mxGeometry relative="1" as="geometry" />
        </mxCell>
        <mxCell id="nvrNx87k68oCqkHKVC3R-8" value="Average=(Not1+Not2)/2" style="whiteSpace=wrap;html=1;rounded=1;glass=0;strokeWidth=1;shadow=0;" vertex="1" parent="WIyWlLk6GJQsqaUBKTNV-1">
          <mxGeometry x="359" y="550" width="120" height="60" as="geometry" />
        </mxCell>
        <mxCell id="nvrNx87k68oCqkHKVC3R-17" value="" style="edgeStyle=orthogonalEdgeStyle;rounded=0;orthogonalLoop=1;jettySize=auto;html=1;" edge="1" parent="WIyWlLk6GJQsqaUBKTNV-1" source="nvrNx87k68oCqkHKVC3R-10" target="nvrNx87k68oCqkHKVC3R-16">
          <mxGeometry relative="1" as="geometry" />
        </mxCell>
        <mxCell id="nvrNx87k68oCqkHKVC3R-20" value="&amp;nbsp; Average&amp;lt;50&amp;nbsp; &amp;nbsp;" style="edgeLabel;html=1;align=center;verticalAlign=middle;resizable=0;points=[];" vertex="1" connectable="0" parent="nvrNx87k68oCqkHKVC3R-17">
          <mxGeometry x="0.5233" y="2" relative="1" as="geometry">
            <mxPoint as="offset" />
          </mxGeometry>
        </mxCell>
        <mxCell id="nvrNx87k68oCqkHKVC3R-19" value="" style="edgeStyle=orthogonalEdgeStyle;rounded=0;orthogonalLoop=1;jettySize=auto;html=1;" edge="1" parent="WIyWlLk6GJQsqaUBKTNV-1" source="nvrNx87k68oCqkHKVC3R-10" target="nvrNx87k68oCqkHKVC3R-18">
          <mxGeometry relative="1" as="geometry" />
        </mxCell>
        <mxCell id="nvrNx87k68oCqkHKVC3R-21" value="Average &amp;gt;=50" style="edgeLabel;html=1;align=center;verticalAlign=middle;resizable=0;points=[];" vertex="1" connectable="0" parent="nvrNx87k68oCqkHKVC3R-19">
          <mxGeometry x="0.4748" relative="1" as="geometry">
            <mxPoint as="offset" />
          </mxGeometry>
        </mxCell>
        <mxCell id="nvrNx87k68oCqkHKVC3R-10" value="Yaz&lt;br&gt;Aldığınız notların ortalaması = Average" style="whiteSpace=wrap;html=1;rounded=1;glass=0;strokeWidth=1;shadow=0;" vertex="1" parent="WIyWlLk6GJQsqaUBKTNV-1">
          <mxGeometry x="359" y="660" width="120" height="60" as="geometry" />
        </mxCell>
        <mxCell id="nvrNx87k68oCqkHKVC3R-16" value="Dersten kaldınız" style="whiteSpace=wrap;html=1;rounded=1;glass=0;strokeWidth=1;shadow=0;" vertex="1" parent="WIyWlLk6GJQsqaUBKTNV-1">
          <mxGeometry x="189" y="820" width="120" height="60" as="geometry" />
        </mxCell>
        <mxCell id="nvrNx87k68oCqkHKVC3R-18" value="Dersten geçtiniz." style="whiteSpace=wrap;html=1;rounded=1;glass=0;strokeWidth=1;shadow=0;" vertex="1" parent="WIyWlLk6GJQsqaUBKTNV-1">
          <mxGeometry x="519" y="820" width="120" height="60" as="geometry" />
        </mxCell>
      </root>
    </mxGraphModel>
  </diagram>
</mxfile>
